HIERARCHY
ROOT Hips
{
	OFFSET 0.00000 0.00000 0.00000
	CHANNELS 6 Xposition Yposition Zposition Zrotation Yrotation Xrotation 
	JOINT LHipJoint
	{
		OFFSET 0 0 0
		CHANNELS 3 Zrotation Yrotation Xrotation
		JOINT LeftUpLeg
		{
			OFFSET 1.62964 -1.40469 0.78906
			CHANNELS 3 Zrotation Yrotation Xrotation
			JOINT LeftLeg
			{
				OFFSET 2.29640 -6.30932 0.00000
				CHANNELS 3 Zrotation Yrotation Xrotation
				JOINT LeftFoot
				{
					OFFSET 2.29451 -6.30412 0.00000
					CHANNELS 3 Zrotation Yrotation Xrotation
					JOINT LeftToeBase
					{
						OFFSET 0.03611 -0.09921 1.56387
						CHANNELS 3 Zrotation Yrotation Xrotation
						End Site
						{
							OFFSET 0.00000 -0.00000 0.80291
						}
					}
				}
			}
		}
	}
	JOINT RHipJoint
	{
		OFFSET 0 0 0
		CHANNELS 3 Zrotation Yrotation Xrotation
		JOINT RightUpLeg
		{
			OFFSET -1.73712 -1.40469 0.78906
			CHANNELS 3 Zrotation Yrotation Xrotation
			JOINT RightLeg
			{
				OFFSET -2.28137 -6.26801 0.00000
				CHANNELS 3 Zrotation Yrotation Xrotation
				JOINT RightFoot
				{
					OFFSET -2.28681 -6.28298 0.00000
					CHANNELS 3 Zrotation Yrotation Xrotation
					JOINT RightToeBase
					{
						OFFSET -0.15927 -0.43759 1.61103
						CHANNELS 3 Zrotation Yrotation Xrotation
						End Site
						{
							OFFSET -0.00000 -0.00000 0.84630
						}
					}
				}
			}
		}
	}
	JOINT LowerBack
	{
		OFFSET 0 0 0
		CHANNELS 3 Zrotation Yrotation Xrotation
		JOINT Spine
		{
			OFFSET -0.04227 2.04338 -0.00225
			CHANNELS 3 Zrotation Yrotation Xrotation
			JOINT Spine1
			{
				OFFSET -0.02148 2.04482 -0.04273
				CHANNELS 3 Zrotation Yrotation Xrotation
				JOINT Neck
				{
					OFFSET 0 0 0
					CHANNELS 3 Zrotation Yrotation Xrotation
					JOINT Neck1
					{
						OFFSET 0.09180 1.44629 0.19359
						CHANNELS 3 Zrotation Yrotation Xrotation
						JOINT Head
						{
							OFFSET 0.00887 1.40645 0.14750
							CHANNELS 3 Zrotation Yrotation Xrotation
							End Site
							{
								OFFSET -0.00669 1.50671 0.03707
							}
						}
					}
				}
				JOINT LeftShoulder
				{
					OFFSET 0 0 0
					CHANNELS 3 Zrotation Yrotation Xrotation
					JOINT LeftArm
					{
						OFFSET 2.17674 1.86763 -0.06520
						CHANNELS 3 Zrotation Yrotation Xrotation
						JOINT LeftForeArm
						{
							OFFSET 4.65776 -0.00000 0.00000
							CHANNELS 3 Zrotation Yrotation Xrotation
							JOINT LeftHand
							{
								OFFSET 3.55539 -0.00000 0.00000
								CHANNELS 3 Zrotation Yrotation Xrotation
								JOINT LeftFingerBase
								{
									OFFSET 0 0 0
									CHANNELS 3 Zrotation Yrotation Xrotation
									JOINT LeftHandIndex1
									{
										OFFSET 0.70726 -0.00000 0.00000
										CHANNELS 3 Zrotation Yrotation Xrotation
										End Site
										{
											OFFSET 0.57022 -0.00000 0.00000
										}
									}
								}
								JOINT LThumb
								{
									OFFSET 0 0 0
									CHANNELS 3 Zrotation Yrotation Xrotation
									End Site
									{
										OFFSET 0.57892 -0.00000 0.57892
									}
								}
							}
						}
					}
				}
				JOINT RightShoulder
				{
					OFFSET 0 0 0
					CHANNELS 3 Zrotation Yrotation Xrotation
					JOINT RightArm
					{
						OFFSET -2.80694 1.55459 -0.32496
						CHANNELS 3 Zrotation Yrotation Xrotation
						JOINT RightForeArm
						{
							OFFSET -4.71925 -0.00000 -0.00000
							CHANNELS 3 Zrotation Yrotation Xrotation
							JOINT RightHand
							{
								OFFSET -3.56990 -0.00000 0.00000
								CHANNELS 3 Zrotation Yrotation Xrotation
								JOINT RightFingerBase
								{
									OFFSET 0 0 0
									CHANNELS 3 Zrotation Yrotation Xrotation
									JOINT RightHandIndex1
									{
										OFFSET -0.50776 -0.00000 0.00000
										CHANNELS 3 Zrotation Yrotation Xrotation
										End Site
										{
											OFFSET -0.40937 -0.00000 0.00000
										}
									}
								}
								JOINT RThumb
								{
									OFFSET 0 0 0
									CHANNELS 3 Zrotation Yrotation Xrotation
									End Site
									{
										OFFSET -0.41562 -0.00000 0.41562
									}
								}
							}
						}
					}
				}
			}
		}
	}
}
MOTION
Frames: 10
Frame Time: .0083333
9.5377 21.5409 8.3439 -187.7300 -58.6229 -140.3550 0.0000 0.0000 0.0000 -14.8599 -18.4023 -40.9862 0.5945 4.9362 13.7267 2.5151 16.2558 29.1009 6.6847 -15.0606 -47.6716 0.0000 0.0000 0.0000 21.3948 2.2837 -31.6586 -0.6255 -5.0609 14.0822 -0.1961 -26.9969 20.2568 -1.3752 7.4212 -20.9692 -3.0052 1.3970 -30.3118 -0.7250 1.9856 -5.9587 1.5994 0.4927 9.8468 -3.6317 0.0760 -0.4028 6.7950 -0.5259 8.9895 2.8699 -0.2513 3.0152 -0.0000 0.0000 0.0000 -75.3300 -4.1349 64.1175 40.4255 -48.3200 -18.7564 -0.0000 -0.0000 4.5209 27.9484 -21.3958 -10.9542 -7.1250 0.0000 -0.0000 -0.4754 6.0612 0.4225 -0.0000 0.0000 0.0000 70.7351 10.2592 50.3045 -35.3420 45.0548 -15.0549 0.0000 0.0000 4.1154 12.3562 -44.7389 -8.7656 7.1250 -0.0000 -0.0000 63.3092 -63.7812 -35.2908
9.5517 21.8513 8.3323 -188.0830 -60.5352 -141.6490 0.0000 0.0000 0.0000 -15.3427 -17.8145 -39.2256 0.6808 5.2755 14.6961 2.4784 16.8414 29.0061 6.4752 -14.8736 -46.8604 0.0000 0.0000 0.0000 21.5246 2.5616 -30.8748 -0.9397 -6.1742 17.2908 -0.7056 -24.7029 21.8367 -1.9114 8.6790 -24.7962 -2.9954 1.6109 -28.6602 -0.6755 2.3525 -5.4103 1.7602 0.7270 9.6418 -3.7947 0.0433 -1.4104 6.8191 -0.5208 9.0660 2.9213 -0.2255 3.2339 -0.0000 0.0000 0.0000 -77.1153 -5.7053 64.1691 37.8692 -46.7555 -16.8702 -0.0000 -0.0000 4.9047 27.0634 -20.5220 -10.1547 -7.1250 0.0000 -0.0000 -0.9255 7.1828 0.8026 -0.0000 0.0000 0.0000 71.8445 9.6620 49.3317 -34.6900 44.5895 -14.5953 0.0000 0.0000 3.3734 12.5018 -44.4866 -8.8316 7.1250 -0.0000 -0.0000 63.0039 -63.6066 -34.8172
9.5680 22.1429 8.3135 -188.2750 -62.6351 -142.9200 0.0000 0.0000 0.0000 -15.3085 -17.5346 -37.7556 0.7942 5.6887 15.8838 2.4233 17.2854 28.7946 6.0583 -14.4846 -45.2153 0.0000 0.0000 0.0000 21.8013 2.9429 -30.2775 -1.3014 -7.2271 20.3900 -1.0825 -22.4946 22.9217 -1.5913 7.9570 -22.5837 -3.0357 1.7353 -27.1860 -0.4635 2.5771 -4.9396 2.0707 0.8807 9.4123 -4.0376 0.0291 -2.1622 6.8468 -0.4947 9.1254 2.9877 -0.1990 3.3999 0.0000 0.0000 0.0000 -78.8686 -6.7199 63.8224 35.6807 -45.2921 -15.2951 -0.0000 -0.0000 5.8039 27.0958 -20.0904 -9.9678 -7.1250 0.0000 -0.0000 -0.8539 7.6465 0.7328 0.0000 0.0000 0.0000 72.7994 8.8377 48.1512 -34.2858 44.2954 -14.3123 0.0000 0.0000 2.6327 11.5604 -44.8515 -8.2091 7.1250 -0.0000 -0.0000 62.8604 -64.0713 -35.3320
9.5770 22.4169 8.2918 -188.6060 -64.9536 -143.7700 0.0000 0.0000 0.0000 -15.0752 -17.6382 -36.5534 0.9127 6.0874 17.0383 2.3954 17.2541 28.6376 5.8008 -14.2325 -44.1771 0.0000 0.0000 0.0000 21.9975 4.4878 -28.9310 -1.5603 -7.8829 22.3590 -1.3905 -20.9214 24.0549 -2.1360 9.1438 -26.2461 -3.0190 1.8306 -26.0145 -0.3451 2.7282 -4.6433 2.2143 0.9896 9.1363 -4.0871 0.0282 -2.4419 6.8294 -0.4771 9.1709 2.9961 -0.1839 3.4688 0.0000 -0.0000 0.0000 -80.3406 -7.2024 63.1840 33.8049 -43.9397 -13.9775 -0.0000 -0.0000 6.8990 26.7596 -19.8724 -9.7265 -7.1250 0.0000 -0.0000 -1.0435 7.9444 0.8894 0.0000 -0.0000 0.0000 73.8090 7.6580 47.1036 -34.1189 44.1726 -14.1959 0.0000 0.0000 1.2817 9.7934 -45.8208 -7.0568 7.1250 -0.0000 -0.0000 63.1490 -65.0973 -36.9175
9.5771 22.6790 8.2687 -188.8950 -67.5723 -144.4210 0.0000 0.0000 0.0000 -14.7627 -17.5724 -35.6908 1.0261 6.4436 18.0771 2.4994 16.0989 28.9893 5.8662 -14.2974 -44.4424 0.0000 0.0000 0.0000 22.3658 2.4851 -30.8181 -2.1021 -9.0755 26.0318 -2.0130 -16.6490 26.3706 -1.5475 7.8520 -22.2654 -2.8471 1.8615 -25.2617 -0.2068 2.7496 -4.3651 2.2587 1.0287 9.0623 -3.9112 -0.0245 -2.4679 6.7773 -0.5530 9.2196 2.9433 -0.2154 3.4930 0.0000 0.0000 0.0000 -81.6443 -7.5130 62.4025 32.1959 -42.7028 -12.8735 -0.0000 -0.0000 7.7547 26.7476 -19.8098 -9.6926 -7.1250 0.0000 -0.0000 -1.0440 8.0148 0.8884 0.0000 0.0000 0.0000 74.8681 6.5721 46.1200 -33.7947 43.9321 -13.9704 0.0000 -0.0000 -0.2263 8.2856 -46.3602 -6.0161 7.1250 -0.0000 -0.0000 62.9498 -65.8298 -37.7087
9.5696 22.9285 8.2418 -189.6120 -70.4477 -144.3860 0.0000 0.0000 0.0000 -14.3836 -17.7373 -35.1249 1.1458 6.7972 19.1160 2.5843 14.7226 29.2504 5.8924 -14.3233 -44.5485 0.0000 0.0000 0.0000 22.5891 2.1463 -31.0001 -2.3048 -9.4739 27.2894 -2.4859 -13.4441 28.5579 -1.5977 7.9723 -22.6301 -2.6971 1.6470 -25.0687 0.0150 2.4547 -4.0430 2.3283 0.9010 9.3367 -3.9038 -0.0690 -2.2922 6.7868 -0.6192 9.2334 2.9412 -0.2502 3.4682 0.0000 -0.0000 0.0000 -82.9648 -7.7754 61.1348 30.7288 -41.5099 -11.8897 -0.0000 -0.0000 8.3625 26.6449 -19.7106 -9.6048 -7.1250 0.0000 -0.0000 -1.0986 8.1408 0.9321 0.0000 -0.0000 0.0000 75.8594 5.8975 45.2097 -33.1951 43.4794 -13.5561 0.0000 -0.0000 -1.0027 9.4439 -45.7607 -6.7958 7.1250 -0.0000 -0.0000 62.7618 -65.1715 -36.7072
9.5560 23.1686 8.2088 -191.6770 -73.3885 -142.8130 0.0000 0.0000 0.0000 -14.1195 -18.5187 -34.5452 1.2446 7.0736 19.9335 2.5506 14.1592 28.9967 5.7043 -14.1355 -43.7831 0.0000 0.0000 0.0000 22.2086 5.7821 -27.8318 -1.9267 -8.7117 24.8975 -2.5856 -14.3017 29.2064 -1.8492 8.5446 -24.3809 -2.8162 1.1894 -25.2430 0.1547 1.9209 -3.7317 2.3946 0.6438 9.7982 -4.0206 -0.0620 -1.9453 6.8370 -0.6169 9.2096 2.9765 -0.2579 3.3951 -0.0000 -0.0000 0.0000 -84.2700 -7.9830 59.3598 29.3089 -40.2936 -10.9599 -0.0000 -0.0000 8.5629 26.2262 -19.0901 -9.1527 -7.1250 0.0000 -0.0000 -1.3002 8.8873 1.0840 -0.0000 -0.0000 0.0000 77.0635 5.4236 44.3364 -32.5360 42.9703 -13.1047 0.0000 -0.0000 -1.4723 10.8844 -45.3896 -7.7947 7.1250 -0.0000 -0.0000 63.2496 -64.5501 -36.2754
9.5382 23.4029 8.1782 -195.6690 -76.3077 -139.2770 0.0000 0.0000 0.0000 -14.1487 -19.4585 -33.8525 1.3006 7.2251 20.3841 2.5031 14.0560 28.7207 5.5315 -13.9585 -43.0713 0.0000 0.0000 0.0000 21.4771 9.1232 -25.1781 -1.6223 -8.0306 22.8070 -2.3264 -16.6809 28.1465 -1.4824 7.6925 -21.7838 -3.2236 0.6581 -25.4786 0.2079 1.3822 -3.3868 2.5252 0.3731 10.3310 -3.8612 -0.1419 -1.6320 6.8572 -0.7433 9.1753 2.9454 -0.3208 3.3297 -0.0000 -0.0000 0.0000 -85.3532 -8.3374 57.8058 28.0556 -39.1674 -10.1588 -0.0000 -0.0000 8.0617 26.3910 -18.2288 -8.8231 -7.1250 0.0000 -0.0000 -1.1034 9.7965 0.8998 -0.0000 -0.0000 0.0000 78.1824 5.1649 43.4492 -31.8407 42.4198 -12.6333 0.0000 -0.0000 -2.0732 8.9125 -46.4806 -6.4876 7.1250 -0.0000 -0.0000 63.6701 -65.6982 -38.1182
9.5168 23.6313 8.1506 -201.7060 -79.1697 -133.4960 0.0000 0.0000 0.0000 -14.2052 -20.1565 -33.3806 1.3274 7.2961 20.5955 2.5180 13.8018 28.7754 5.5835 -14.0123 -43.2866 0.0000 0.0000 0.0000 20.8980 10.3862 -23.8476 -1.3696 -7.4066 20.9257 -2.0750 -17.6422 26.9540 -1.2534 7.0977 -20.0050 -3.7324 0.0804 -25.8885 0.4361 0.7937 -3.0615 2.8904 0.0649 10.9436 -3.7743 -0.2535 -1.3929 6.8934 -0.9064 9.1459 2.9337 -0.4021 3.2837 0.0000 0.0000 0.0000 -86.4324 -8.9605 56.6042 26.8591 -38.0445 -9.4122 -0.0000 -0.0000 7.1779 27.0754 -17.4548 -8.7174 -7.1250 0.0000 -0.0000 -0.5768 10.5308 0.4617 0.0000 0.0000 0.0000 78.7198 5.0456 42.7621 -31.1124 41.8280 -12.1447 0.0000 -0.0000 -2.6019 6.4258 -47.5025 -4.7469 7.1250 -0.0000 -0.0000 63.7331 -66.9758 -39.8035
9.4928 23.8527 8.1181 -210.0660 -81.9864 -125.1680 0.0000 0.0000 0.0000 -13.7986 -20.7795 -33.0560 1.3208 7.2786 20.5435 2.5310 13.8831 28.8569 5.7250 -14.1564 -43.8677 0.0000 0.0000 0.0000 20.6994 11.8235 -22.7535 -1.1645 -6.8504 19.2728 -1.6511 -18.4292 24.7207 -1.2355 7.0486 -19.8594 -3.9776 -0.4967 -26.3675 0.7564 0.1070 -2.9175 3.1645 -0.2817 11.4119 -3.9600 -0.2859 -1.1845 6.9532 -0.9517 9.1496 2.9865 -0.4322 3.2517 -0.0000 -0.0000 0.0000 -87.4355 -9.3907 55.2066 25.6481 -36.8591 -8.6757 -0.0000 -0.0000 6.6240 27.6510 -16.7495 -8.5861 -7.1250 0.0000 -0.0000 -0.1256 11.2141 0.0987 -0.0000 -0.0000 0.0000 79.3770 4.8642 42.2120 -30.2237 41.0844 -11.5563 0.0000 -0.0000 -2.6695 5.4095 -47.9018 -4.0192 7.1250 -0.0000 -0.0000 63.7793 -67.4921 -40.4890
